<?xml version="1.0" encoding="utf-8"?>
<!-- Generator: Adobe Illustrator 16.0.0, SVG Export Plug-In . SVG Version: 6.00 Build 0)  -->
<!DOCTYPE svg PUBLIC "-//W3C//DTD SVG 1.1//EN" "http://www.w3.org/Graphics/SVG/1.1/DTD/svg11.dtd" [
	<!ENTITY ns_extend "http://ns.adobe.com/Extensibility/1.0/">
	<!ENTITY ns_ai "http://ns.adobe.com/AdobeIllustrator/10.0/">
	<!ENTITY ns_graphs "http://ns.adobe.com/Graphs/1.0/">
	<!ENTITY ns_vars "http://ns.adobe.com/Variables/1.0/">
	<!ENTITY ns_imrep "http://ns.adobe.com/ImageReplacement/1.0/">
	<!ENTITY ns_sfw "http://ns.adobe.com/SaveForWeb/1.0/">
	<!ENTITY ns_custom "http://ns.adobe.com/GenericCustomNamespace/1.0/">
	<!ENTITY ns_adobe_xpath "http://ns.adobe.com/XPath/1.0/">
]>
<svg version="1.1" id="Layer_1" xmlns:x="&ns_extend;" xmlns:i="&ns_ai;" xmlns:graph="&ns_graphs;"
	 xmlns="http://www.w3.org/2000/svg" xmlns:xlink="http://www.w3.org/1999/xlink" x="0px" y="0px" width="1077.794px"
	 height="162.403px" viewBox="0 0 1077.794 162.403" enable-background="new 0 0 1077.794 162.403" xml:space="preserve">
<metadata>
	<sfw  xmlns="&ns_sfw;">
		<slices></slices>
		<sliceSourceBounds  width="1077.794" height="162.403" x="431.335" y="-651.334" bottomLeftOrigin="true"></sliceSourceBounds>
	</sfw>
</metadata>
<g>
	<path d="M96.886,6.056c-1.003-0.829-2.083-1.242-3.232-1.242H81.314c-1.505,0-2.661,0.426-3.461,1.28
		c-0.801,0.854-1.201,1.93-1.201,3.232v34.528c-3.613-3.762-7.748-6.734-12.415-8.916c-4.662-2.179-10.053-3.271-16.169-3.271
		c-6.77,0-13.079,1.292-18.921,3.874c-5.842,2.584-10.93,6.106-15.268,10.567c-4.337,4.464-7.737,9.694-10.195,15.686
		C1.226,67.787,0,74.218,0,81.089c0,6.82,1.226,13.226,3.684,19.218c2.458,5.994,5.858,11.222,10.195,15.686
		c4.338,4.462,9.425,7.986,15.268,10.567c5.843,2.582,12.151,3.874,18.921,3.874c2.959,0,5.802-0.326,8.539-0.978
		c2.731-0.654,5.311-1.543,7.748-2.671c2.427-1.127,4.712-2.47,6.841-4.023c2.133-1.556,4.074-3.21,5.833-4.966l0.674,6.396
		c0.456,1.502,0.953,2.632,1.505,3.385c0.553,0.752,1.581,1.127,3.086,1.127h11.285c3.208,0,4.813-1.505,4.813-4.512V9.326
		C98.391,7.974,97.889,6.881,96.886,6.056z M78.081,81.616c-0.101,3.96-0.917,7.685-2.447,11.168
		c-1.53,3.486-3.598,6.545-6.202,9.18c-2.61,2.632-5.67,4.712-9.177,6.242c-3.512,1.53-7.251,2.293-11.209,2.293
		c-4.013,0-7.712-0.775-11.097-2.33c-3.385-1.554-6.329-3.662-8.837-6.319c-2.508-2.658-4.464-5.779-5.868-9.364
		c-1.403-3.585-2.107-7.383-2.107-11.396c0-3.962,0.704-7.748,2.107-11.358c1.404-3.61,3.36-6.782,5.868-9.516
		s5.452-4.913,8.837-6.544c3.385-1.629,7.084-2.445,11.097-2.445c4.059,0,7.859,0.816,11.396,2.445
		c3.532,1.632,6.603,3.811,9.212,6.544c2.61,2.734,4.662,5.906,6.167,9.516s2.26,7.396,2.26,11.358V81.616z"/>
	<path d="M118.771,38.136c-0.051-1.654,0.451-2.896,1.505-3.722c1.054-0.829,2.255-1.242,3.613-1.242h12.182
		c1.556,0,2.746,0.477,3.577,1.429c0.826,0.953,1.242,2.13,1.242,3.534v87.786c0,2.556-0.152,5.062-0.456,7.52
		c-0.552,3.661-1.779,7.046-3.684,10.155c-1.905,3.108-4.262,5.794-7.069,8.049c-2.812,2.258-5.959,4.025-9.44,5.303
		c-3.486,1.279-7.059,1.918-10.723,1.918c-1.454,0-2.595-0.438-3.42-1.314c-0.826-0.88-1.242-1.969-1.242-3.273v-7.821
		c0-1.556,0.467-2.785,1.394-3.687c0.928-0.902,2.067-1.355,3.421-1.355h1.054c1.15,0,2.22-0.4,3.197-1.204
		c0.979-0.8,1.83-1.791,2.554-2.969c0.729-1.181,1.292-2.458,1.692-3.836c0.405-1.381,0.603-2.647,0.603-3.801V38.136z
		 M118.549,4.513c0.045-1.604,0.425-2.744,1.125-3.423c0.705-0.677,1.784-1.039,3.238-1.09H136c1.551,0.051,2.716,0.388,3.497,1.016
		c0.775,0.625,1.166,1.893,1.166,3.798v10.457c0,0.501-0.086,1.051-0.264,1.654c-0.177,0.601-0.451,1.178-0.826,1.73
		s-0.856,1.016-1.429,1.391c-0.578,0.375-1.292,0.565-2.144,0.565h-13.089c-2.908-0.152-4.362-1.854-4.362-5.116V4.513z"/>
	<path d="M257.478,124.265c0,0.904-0.188,1.645-0.563,2.22c-0.375,0.577-0.866,1.028-1.464,1.355
		c-0.603,0.326-1.292,0.552-2.073,0.676c-0.775,0.124-1.591,0.188-2.442,0.188h-9.404c-1.602,0-2.722-0.425-3.345-1.279
		c-0.628-0.852-1.089-1.928-1.394-3.232l-0.451-6.396c-1.753,1.756-3.699,3.398-5.827,4.928c-2.133,1.531-4.429,2.858-6.887,3.986
		c-2.457,1.13-5.062,2.006-7.818,2.632c-2.762,0.629-5.594,0.94-8.503,0.94c-4.515,0-8.862-0.588-13.048-1.767
		c-4.191-1.178-8.113-2.832-11.776-4.966c-3.659-2.131-6.983-4.699-9.963-7.71c-2.984-3.007-5.543-6.341-7.677-10.003
		c-2.128-3.66-3.785-7.598-4.961-11.812c-1.181-4.211-1.768-8.599-1.768-13.162c0-4.563,0.587-8.951,1.768-13.165
		c1.176-4.211,2.833-8.148,4.961-11.809c2.134-3.661,4.692-6.983,7.677-9.968c2.98-2.982,6.304-5.541,9.963-7.671
		c3.663-2.131,7.585-3.786,11.776-4.966c4.186-1.175,8.533-1.766,13.048-1.766c3.208,0,6.269,0.337,9.177,1.013
		c2.909,0.679,5.63,1.632,8.163,2.861c2.529,1.229,4.875,2.706,7.034,4.436c2.154,1.73,4.11,3.624,5.868,5.681l1.054-8.049
		c0.249-0.902,0.487-1.642,0.714-2.22c0.223-0.575,0.497-1.039,0.826-1.391c0.324-0.35,0.74-0.588,1.241-0.715
		c0.502-0.124,1.125-0.188,1.88-0.188h7.52c0.806,0,1.606,0.074,2.407,0.226c0.806,0.149,1.53,0.388,2.185,0.715
		c0.648,0.327,1.165,0.777,1.54,1.353c0.375,0.578,0.563,1.292,0.563,2.144V124.265z M179.249,80.863
		c0,4.011,0.705,7.812,2.108,11.396c1.403,3.585,3.359,6.731,5.868,9.44c2.503,2.706,5.453,4.852,8.837,6.43
		c3.385,1.579,7.084,2.369,11.092,2.369c4.064,0,7.865-0.79,11.396-2.369c3.537-1.578,6.608-3.724,9.218-6.43
		c2.604-2.709,4.662-5.855,6.167-9.44c1.505-3.585,2.255-7.386,2.255-11.396c0-3.962-0.75-7.735-2.255-11.323
		c-1.505-3.583-3.562-6.732-6.167-9.438c-2.61-2.708-5.681-4.865-9.218-6.471c-3.532-1.604-7.332-2.407-11.396-2.407
		c-4.008,0-7.707,0.803-11.092,2.407c-3.385,1.606-6.334,3.763-8.837,6.471c-2.508,2.706-4.464,5.855-5.868,9.438
		C179.954,73.128,179.249,76.901,179.249,80.863z"/>
	<path d="M278.086,35.354c0.604-0.803,1.181-1.305,1.733-1.505c0.4-0.4,1.003-0.613,1.804-0.639s1.556-0.038,2.26-0.038h7.596
		c1.455,0,2.529,0.477,3.233,1.429s1.181,2.006,1.429,3.159l0.826,7.973c1.155-1.705,2.574-3.385,4.251-5.039
		c1.682-1.654,3.674-3.134,5.979-4.439c2.306-1.302,4.941-2.356,7.9-3.16c2.959-0.8,6.293-1.203,10.002-1.203
		c5.918,0,11.184,1.066,15.8,3.197c4.611,2.131,8.498,5.052,11.66,8.764c3.157,3.712,5.554,8.075,7.181,13.089
		c1.631,5.014,2.447,10.406,2.447,16.172v50.17c0,1.807-0.426,3.16-1.282,4.064c-0.851,0.902-2.077,1.353-3.684,1.353H345.79
		c-2.007,0-3.35-0.375-4.028-1.127c-0.674-0.753-1.014-2.08-1.014-3.988V73.491c0-2.658-0.451-5.252-1.353-7.786
		c-0.902-2.531-2.219-4.801-3.953-6.808c-1.728-2.004-3.871-3.61-6.43-4.814c-2.554-1.204-5.513-1.804-8.873-1.804
		c-2.311,0-4.703,0.463-7.186,1.391c-2.483,0.93-4.753,2.245-6.806,3.95c-2.057,1.705-3.765,3.772-5.118,6.205
		s-2.057,5.179-2.108,8.237v48.744c0,0.953-0.051,1.906-0.147,2.858c-0.101,0.952-0.314,1.804-0.639,2.557
		c-0.33,0.752-0.791,1.355-1.393,1.807c-0.604,0.45-1.379,0.676-2.331,0.676h-12.415c-1.652,0-2.868-0.388-3.648-1.165
		c-0.775-0.778-1.166-1.893-1.166-3.347V37.609C277.184,36.91,277.488,36.158,278.086,35.354z"/>
	<path d="M452.75,121.934c0.253-0.902,0.375-1.969,0.375-3.197c0-1.229,0.051-2.369,0.152-3.423
		c-1.804,1.907-3.724,3.687-5.751,5.341c-2.032,1.654-4.227,3.099-6.583,4.325c-2.361,1.23-4.916,2.193-7.677,2.896
		c-2.756,0.704-5.741,1.054-8.948,1.054c-4.515,0-8.837-0.55-12.978-1.654c-4.135-1.102-7.986-2.683-11.543-4.74
		c-3.563-2.055-6.795-4.538-9.704-7.446c-2.908-2.906-5.407-6.142-7.484-9.704c-2.083-3.56-3.688-7.421-4.813-11.584
		c-1.13-4.16-1.692-8.522-1.692-13.088c0-4.512,0.562-8.875,1.692-13.089c1.125-4.21,2.731-8.135,4.813-11.771
		c2.078-3.636,4.576-6.958,7.484-9.967c2.909-3.007,6.142-5.577,9.704-7.71c3.557-2.131,7.408-3.785,11.543-4.963
		c4.14-1.178,8.462-1.769,12.978-1.769c3.207,0,6.232,0.34,9.065,1.016c2.832,0.676,5.487,1.642,7.971,2.896
		c2.482,1.254,4.804,2.733,6.957,4.437c2.159,1.708,4.14,3.562,5.944,5.566c0.202-1.354,0.39-2.681,0.563-3.986
		c0.177-1.305,0.339-2.632,0.491-3.988c0.299-1.401,0.74-2.493,1.317-3.271c0.573-0.778,1.667-1.166,3.269-1.166
		c1.657,0,3.299,0.013,4.931,0.038c1.626,0.025,3.273,0.036,4.925,0.036c1.155,0,2.169,0.403,3.046,1.204
		c0.876,0.803,1.317,1.857,1.317,3.159v0.603v76.123c0,8.228-1.328,15.359-3.988,21.402c-2.655,6.042-6.268,11.057-10.829,15.044
		c-4.565,3.986-9.866,6.958-15.911,8.914c-6.045,1.955-12.45,2.934-19.22,2.934c-2.858,0-5.726-0.238-8.609-0.715
		c-2.888-0.479-5.706-1.155-8.462-2.031c-2.762-0.877-5.392-1.956-7.9-3.236c-2.508-1.276-4.788-2.718-6.846-4.324
		c-0.653-0.4-1.19-0.89-1.616-1.467c-0.426-0.575-0.639-1.29-0.639-2.144c0-0.4,0.046-0.816,0.147-1.241
		c0.102-0.426,0.355-0.915,0.755-1.468l5.64-8.198c0.552-0.651,1.054-1.141,1.505-1.467c0.451-0.327,0.953-0.489,1.505-0.489
		c0.4,0.051,0.867,0.151,1.394,0.302c0.522,0.151,1.064,0.45,1.616,0.901c1.201,1.054,2.696,1.943,4.475,2.671
		c1.779,0.727,3.633,1.33,5.564,1.807c1.931,0.476,3.861,0.813,5.797,1.016c1.926,0.2,3.644,0.299,5.148,0.299
		c3.714,0,7.261-0.477,10.646-1.429c3.385-0.953,6.396-2.331,9.025-4.138c2.635-1.804,4.788-3.985,6.471-6.542
		C451.458,127.951,452.451,125.093,452.75,121.934z M397.238,80.711c0,4.013,0.699,7.811,2.108,11.396
		c1.403,3.588,3.354,6.732,5.863,9.44c2.508,2.709,5.458,4.852,8.842,6.434c3.385,1.578,7.079,2.368,11.092,2.368
		c3.962,0,7.697-0.777,11.209-2.333c3.511-1.554,6.567-3.646,9.177-6.281c2.61-2.633,4.677-5.703,6.208-9.212
		c1.53-3.512,2.341-7.224,2.442-11.133v-1.204c-0.102-3.912-0.912-7.624-2.442-11.133c-1.53-3.512-3.598-6.595-6.208-9.253
		s-5.666-4.763-9.177-6.319c-3.512-1.553-7.247-2.331-11.209-2.331c-4.013,0-7.708,0.788-11.092,2.369
		c-3.385,1.579-6.334,3.722-8.842,6.431c-2.508,2.708-4.459,5.855-5.863,9.44C397.937,72.977,397.238,76.751,397.238,80.711z"/>
	<path d="M493.222,81.089c0-4.563,0.588-8.964,1.764-13.203c1.181-4.236,2.843-8.186,5.001-11.847
		c2.154-3.659,4.733-6.983,7.743-9.967c3.005-2.982,6.334-5.539,9.992-7.672c3.659-2.131,7.581-3.786,11.767-4.963
		c4.181-1.178,8.554-1.769,13.114-1.769c4.51,0,8.867,0.59,13.078,1.769c4.211,1.178,8.128,2.833,11.762,4.963
		c3.633,2.133,6.957,4.69,9.962,7.672c3.005,2.984,5.584,6.309,7.743,9.967c2.153,3.661,3.82,7.611,4.996,11.847
		c1.181,4.239,1.769,8.64,1.769,13.203c0,4.563-0.588,8.951-1.769,13.162c-1.176,4.214-2.843,8.139-4.996,11.773
		c-2.159,3.637-4.738,6.958-7.743,9.968c-3.005,3.008-6.329,5.579-9.962,7.71c-3.634,2.131-7.551,3.785-11.762,4.963
		c-4.211,1.179-8.568,1.769-13.078,1.769c-4.561,0-8.934-0.59-13.114-1.769c-4.186-1.178-8.107-2.832-11.767-4.963
		c-3.658-2.131-6.987-4.702-9.992-7.71c-3.01-3.01-5.589-6.331-7.743-9.968c-2.158-3.635-3.82-7.56-5.001-11.773
		C493.81,90.04,493.222,85.652,493.222,81.089z M514.434,81.089c0,4.014,0.699,7.812,2.103,11.396
		c1.404,3.585,3.36,6.706,5.868,9.364c2.508,2.657,5.478,4.766,8.913,6.319c3.436,1.555,7.186,2.33,11.25,2.33
		c3.957,0,7.631-0.775,11.016-2.33c3.385-1.554,6.309-3.662,8.767-6.319c2.458-2.658,4.373-5.779,5.751-9.364
		c1.384-3.585,2.072-7.383,2.072-11.396c0-3.962-0.688-7.748-2.072-11.358c-1.378-3.61-3.293-6.782-5.751-9.516
		s-5.382-4.913-8.767-6.544c-3.385-1.629-7.059-2.445-11.016-2.445c-4.064,0-7.814,0.816-11.25,2.445
		c-3.436,1.632-6.405,3.811-8.913,6.544s-4.464,5.906-5.868,9.516C515.133,73.341,514.434,77.126,514.434,81.089z"/>
	<g>
		<path d="M722.072,128.703c-3.963-0.048-7.683-0.65-11.169-1.806c-3.486-1.156-6.521-2.823-9.101-5.007
			c-2.584-2.185-4.626-4.87-6.131-8.057c-1.505-3.188-2.261-6.815-2.261-10.882V90.529V52.127h-8.649
			c-1.454,0-2.544-0.324-3.269-0.973c-0.729-0.649-1.094-1.723-1.094-3.223V37.143c0-1.447,0.364-2.473,1.094-3.071
			c0.725-0.601,1.814-0.899,3.269-0.899h8.649c0-2.658,0.016-5.303,0.041-7.936c0.025-2.635,0.035-5.277,0.035-7.938
			c0-1.001,0.314-1.792,0.943-2.369c0.623-0.575,1.591-1.089,2.893-1.54c0.856-0.302,1.88-0.667,3.086-1.092
			s2.442-0.838,3.725-1.242c1.277-0.4,2.519-0.74,3.725-1.016c1.201-0.274,2.204-0.413,3.005-0.413c1.556,0,2.569,0.426,3.051,1.279
			c0.476,0.854,0.714,1.981,0.714,3.385c0,3.159-0.015,6.306-0.04,9.44c-0.025,3.134-0.036,6.281-0.036,9.44h10.829
			c1.308,0,2.306,0.337,3.01,1.011c0.704,0.674,1.054,1.736,1.054,3.185v10.264c0,1.599-0.35,2.749-1.054,3.448
			s-1.702,1.046-3.01,1.046h-10.829c0,3.266,0,6.027,0,8.285c0,2.263,0,4.256,0,5.989c0,1.733,0.011,3.352,0.036,4.859
			c0.025,1.505,0.04,3.137,0.04,4.896c0,1.755,0,3.765,0,6.024s0,5.021,0,8.285c0,0.102-0.015,0.2-0.04,0.302
			s-0.036,0.2-0.036,0.302v9.865c0,3.314,0.649,5.698,1.957,7.155c1.302,1.457,3.41,2.184,6.318,2.184
			c1.054,0,1.88,0.378,2.482,1.128c0.599,0.752,0.902,1.657,0.902,2.708v10.457c0,1.305-0.365,2.32-1.095,3.048
			C724.393,128.341,723.374,128.703,722.072,128.703z"/>
		<path d="M969.399,9.326c0-1.302,0.351-2.379,1.055-3.232c0.699-0.854,1.778-1.28,3.232-1.28h13.165c1.003,0,1.94,0.426,2.817,1.28
			c0.882,0.854,1.317,1.93,1.317,3.232v114.865c0,1.502-0.41,2.632-1.241,3.385c-0.826,0.752-1.941,1.127-3.345,1.127h-12.562
			c-1.606,0-2.746-0.375-3.426-1.127c-0.674-0.753-1.014-1.883-1.014-3.385V9.326z"/>
		<path d="M1022.282,101.773c1.049,1.654,2.381,3.086,3.982,4.29c1.606,1.203,3.248,2.193,4.931,2.969
			c1.677,0.778,3.283,1.343,4.813,1.692c1.531,0.353,2.747,0.527,3.648,0.527c1.404,0,3.056-0.149,4.961-0.451
			s3.699-0.839,5.382-1.616c1.677-0.778,3.106-1.832,4.287-3.16c1.175-1.327,1.769-3.02,1.769-5.077c0-2.007-0.467-3.636-1.394-4.89
			c-0.928-1.254-2.179-2.295-3.761-3.121c-1.58-0.829-3.385-1.518-5.416-2.07c-2.032-0.55-4.176-1.152-6.431-1.804
			c-5.265-1.403-9.755-3.097-13.464-5.077c-3.714-1.982-6.76-4.252-9.142-6.809c-2.382-2.556-4.124-5.366-5.229-8.424
			c-1.1-3.059-1.651-6.395-1.651-10.005c0-4.062,0.801-7.773,2.407-11.133c1.605-3.36,3.861-6.243,6.77-8.65
			c2.908-2.407,6.405-4.274,10.494-5.604c4.084-1.328,8.609-1.994,13.575-1.994c3.512,0,6.644,0.314,9.405,0.94
			c2.756,0.628,5.315,1.568,7.672,2.822c2.355,1.254,4.575,2.833,6.658,4.738c2.077,1.908,4.195,4.137,6.354,6.694
			c0.75,0.904,1.131,1.781,1.131,2.635c0,0.902-0.502,1.756-1.505,2.557c-0.755,0.603-1.642,1.353-2.671,2.258
			c-1.028,0.902-2.047,1.778-3.045,2.632c-1.004,0.854-1.956,1.578-2.858,2.181c-0.907,0.601-1.657,0.902-2.26,0.902
			c-1.104,0-2.179-0.651-3.233-1.956c-1.104-1.302-2.209-2.445-3.309-3.423c-1.104-0.978-2.26-1.779-3.461-2.407
			c-1.206-0.626-2.508-1.102-3.912-1.429c-1.403-0.324-2.934-0.489-4.591-0.489c-1.353,0-2.771,0.2-4.246,0.603
			c-1.479,0.4-2.838,1.003-4.064,1.804c-1.231,0.803-2.255,1.769-3.086,2.896c-0.825,1.13-1.236,2.397-1.236,3.801
			c0,1.604,0.512,2.969,1.536,4.1c1.028,1.127,2.33,2.105,3.906,2.931c1.576,0.829,3.294,1.518,5.144,2.07
			c1.854,0.553,3.582,1.054,5.184,1.505c4.606,1.305,8.837,2.808,12.693,4.513c3.852,1.705,7.17,3.775,9.947,6.205
			c2.782,2.435,4.945,5.293,6.496,8.576c1.556,3.286,2.331,7.135,2.331,11.546c0,4.664-0.928,8.84-2.771,12.526
			c-1.855,3.684-4.414,6.805-7.688,9.364c-3.273,2.556-7.15,4.512-11.629,5.867c-4.48,1.354-9.354,2.03-14.619,2.03
			c-3.162,0-6.37-0.338-9.628-1.017c-3.264-0.677-6.385-1.728-9.364-3.159c-2.984-1.429-5.746-3.258-8.275-5.49
			c-2.533-2.229-4.651-4.877-6.359-7.936c-0.75-1.254-1.125-2.382-1.125-3.385c0-0.651,0.162-1.217,0.486-1.692
			c0.324-0.477,0.766-0.94,1.318-1.392l8.422-6.471c0.755-0.451,1.429-0.676,2.031-0.676c0.705,0,1.328,0.237,1.88,0.714
			C1021.025,100.334,1021.628,100.973,1022.282,101.773z"/>
		<path d="M837.879,67.886c-1.181-4.236-2.848-8.186-5.001-11.847c-2.153-3.659-4.732-6.983-7.743-9.967
			c-3.005-2.982-6.323-5.539-9.957-7.672c-3.633-2.131-7.556-3.786-11.767-4.963c-4.205-1.178-8.563-1.769-13.073-1.769
			c-4.561,0-8.934,0.59-13.119,1.769c-4.186,1.178-8.103,2.833-11.761,4.963c-3.658,2.133-6.993,4.69-9.998,7.672
			c-3.005,2.984-5.589,6.309-7.742,9.967c-2.154,3.661-3.821,7.611-4.996,11.847c-1.182,4.239-1.77,8.64-1.77,13.203
			c0,4.563,0.588,8.951,1.77,13.162c1.175,4.214,2.842,8.139,4.996,11.773c2.153,3.637,4.737,6.958,7.742,9.968
			c3.005,3.008,6.34,5.579,9.998,7.71s7.575,3.785,11.761,4.963c0.91,0.256,1.832,0.472,2.762,0.675v-27.067
			c-8.452-3.906-14.333-12.438-14.335-22.364c0-9.927,5.883-18.455,14.335-22.364v22.364h20.64V57.544
			c8.451,3.907,14.33,12.438,14.33,22.364s-5.876,18.455-14.33,22.362v27.074c0.938-0.203,1.869-0.421,2.791-0.68
			c4.211-1.178,8.134-2.832,11.767-4.963c3.634-2.131,6.952-4.702,9.957-7.71c3.011-3.01,5.59-6.331,7.743-9.968
			c2.153-3.635,3.82-7.56,5.001-11.773c1.176-4.211,1.764-8.599,1.764-13.162C839.643,76.526,839.055,72.125,837.879,67.886z"/>
		<path d="M950.332,67.886c-1.176-4.236-2.843-8.186-4.996-11.847c-2.159-3.659-4.738-6.983-7.743-9.967
			c-3.005-2.982-6.329-5.539-9.962-7.672c-3.634-2.131-7.551-3.786-11.762-4.963c-0.925-0.259-1.856-0.477-2.794-0.679v27.075
			c8.452,3.907,14.33,12.435,14.332,22.361c0,9.927-5.883,18.455-14.335,22.364V82.193h-20.639v22.364
			c-8.452-3.906-14.33-12.438-14.33-22.364s5.878-18.457,14.333-22.364V32.763c-0.928,0.203-1.85,0.418-2.76,0.674
			c-4.186,1.178-8.107,2.833-11.766,4.963c-3.659,2.133-6.988,4.69-9.993,7.672c-3.01,2.984-5.589,6.309-7.743,9.967
			c-2.158,3.661-3.82,7.611-5.001,11.847c-1.176,4.239-1.764,8.64-1.764,13.203c0,4.563,0.588,8.951,1.764,13.162
			c1.181,4.214,2.843,8.139,5.001,11.773c2.154,3.637,4.733,6.958,7.743,9.968c3.005,3.008,6.334,5.579,9.993,7.71
			c3.658,2.131,7.58,3.785,11.766,4.963c4.181,1.179,8.554,1.769,13.114,1.769c4.51,0,8.868-0.59,13.078-1.769
			c4.211-1.178,8.128-2.832,11.762-4.963c3.633-2.131,6.957-4.702,9.962-7.71c3.005-3.01,5.584-6.331,7.743-9.968
			c2.153-3.635,3.82-7.56,4.996-11.773c1.181-4.211,1.769-8.599,1.769-13.162C952.101,76.526,951.513,72.125,950.332,67.886z"/>
	</g>
	<path d="M610.504,77.321c0-2.199,1.124-3.299,3.372-3.299h49.925c0.899,0,1.675,0.287,2.326,0.861
		c0.648,0.575,0.973,1.386,0.973,2.438v11.468c0,0.851-0.299,1.649-0.899,2.399s-1.398,1.125-2.399,1.125h-49.925
		c-2.248,0-3.372-1.174-3.372-3.524V77.321z"/>
</g>
</svg>
